<svg width="39" height="36" viewBox="0 0 39 36" fill="none" xmlns="http://www.w3.org/2000/svg">
<path d="M38.7747 22.5737C38.7572 22.4789 38.7126 22.3899 38.6453 22.3155C38.5779 22.2411 38.4902 22.184 38.3908 22.1497L31.7366 19.8868C31.5972 19.839 31.4433 19.839 31.3039 19.8868L28.2571 20.933C26.7039 19.7115 24.8767 18.8081 22.9008 18.2847C23.6928 17.6062 24.3284 16.7927 24.7708 15.8912C25.2132 14.9897 25.4537 14.018 25.4784 13.0321V8.46227C25.4784 4.79539 23.041 1.85528 19.0192 0.561416C15.8931 -0.435137 12.7366 -0.0772589 11.2315 1.41482C7.74595 2.08102 6.17988 5.69284 6.22254 7.97776L6.2591 9.98188V13.0321C6.28595 14.0195 6.52858 14.9924 6.97303 15.8947C7.41749 16.7971 8.05499 17.6112 8.84889 18.2902C3.04776 20.052 0.122812 23.5207 0.000938972 28.8558C-0.00640301 28.9752 0.0294654 29.0935 0.103123 29.1928C0.17678 29.2922 0.284223 29.3671 0.409212 29.4064C4.70032 30.6966 9.17372 31.4253 13.6933 31.5702H13.8091H13.8518C14.5627 31.5959 15.2736 31.6087 15.9845 31.6087C16.7097 31.6087 17.4348 31.6087 18.1539 31.5592H18.2209H18.3184C20.8063 31.4641 23.283 31.2027 25.7283 30.7774C26.3298 31.6608 27.0779 32.4555 27.9463 33.1339C28.9651 33.8747 30.0779 34.5031 31.2613 35.0058C31.339 35.0369 31.4231 35.053 31.5081 35.053C31.5931 35.053 31.6771 35.0369 31.7549 35.0058C32.9381 34.5029 34.0509 33.8744 35.0698 33.1339C38.2811 30.6122 39.5608 26.9783 38.7747 22.5737ZM11.652 2.46092C11.7985 2.43804 11.9307 2.36755 12.0237 2.26272C13.1083 1.03492 15.9419 0.748614 18.617 1.59651C19.9393 2.01495 24.2597 3.74929 24.2597 8.46227V9.42579H17.2703C14.6622 9.42579 14.0285 8.6825 12.7244 6.85457C12.6665 6.77484 12.5866 6.71008 12.4926 6.66665C12.3986 6.62321 12.2937 6.60259 12.1882 6.60681C12.0862 6.60696 11.986 6.63023 11.8965 6.67448C11.8071 6.71872 11.7314 6.78254 11.6763 6.86008L11.2254 7.50426C10.1773 9.02386 9.897 9.43129 8.25781 9.43129H7.46564V7.96675C7.4047 6.27095 8.61124 2.92892 11.652 2.46092ZM7.47173 13.0321V10.527H8.27609C10.549 10.527 11.1706 9.69007 12.2248 8.16496C13.3826 9.67906 14.4672 10.527 17.2703 10.527H24.2597V13.0376C24.2597 15.1133 22.9252 17.1615 20.6949 18.5049C19.2645 19.3847 17.5748 19.8565 15.8444 19.8593C11.4752 19.8208 7.47173 16.5779 7.47173 13.0321ZM9.90919 19.1381C10.7999 19.7353 11.7918 20.1983 12.8463 20.509L13.7543 22.7113L12.0115 28.0795C11.9674 28.1955 11.9674 28.3214 12.0115 28.4374L12.8707 30.3975C8.91192 30.2147 4.99585 29.5707 1.21967 28.4814C1.49388 23.6749 4.3457 20.6356 9.92747 19.1381H9.90919ZM14.2113 30.469L13.2241 28.2227L14.9852 22.8765C15.0265 22.7639 15.0265 22.6422 14.9852 22.5296L14.2905 20.8228C14.8077 20.9049 15.3315 20.9491 15.8566 20.955H15.9175C16.507 20.9512 17.0947 20.8959 17.6725 20.7898L17.0631 22.5572C17.0329 22.6544 17.0329 22.7573 17.0631 22.8545L18.6109 28.107L17.7517 30.458C16.5858 30.5021 15.4097 30.5057 14.2235 30.469H14.2113ZM19.0862 30.414L19.854 28.3108C19.8877 28.2084 19.8877 28.0993 19.854 27.9969L18.3001 22.7334L19.0496 20.4595C19.8645 20.2009 20.6403 19.8513 21.3591 19.4189L21.7796 19.1491C23.6509 19.5651 25.4076 20.3241 26.9409 21.3789L24.6314 22.1718C24.5312 22.2065 24.443 22.2645 24.3756 22.3399C24.3082 22.4153 24.264 22.5054 24.2475 22.6012C23.7336 25.0119 24.0374 27.5066 25.1189 29.7588C23.1248 30.0892 21.1101 30.3081 19.0862 30.414ZM34.2776 32.286C33.4186 32.9026 32.4915 33.4377 31.5111 33.8826C30.5308 33.4376 29.6037 32.9025 28.7446 32.286C27.8557 31.5976 27.1071 30.774 26.5326 29.8524C25.3748 27.9804 24.997 25.7175 25.4053 23.0912L28.3485 22.0837L31.505 20.9825L37.5987 23.0747C38.2385 26.9783 37.1112 30.0726 34.2837 32.286H34.2776Z" fill="#737791"/>
<path d="M34.1252 25.1614L30.9565 28.6301L29.5245 27.3803C29.4082 27.2788 29.2519 27.2232 29.0902 27.2258C28.9285 27.2284 28.7746 27.2889 28.6623 27.394C28.5499 27.4992 28.4884 27.6403 28.4913 27.7864C28.4942 27.9325 28.5611 28.0716 28.6775 28.1731L30.5848 29.8249C30.6978 29.9232 30.8484 29.9785 31.0053 29.979H31.0357C31.119 29.9745 31.2004 29.9546 31.2748 29.9205C31.3493 29.8864 31.4151 29.8389 31.4684 29.7808L35.0697 25.8772C35.1748 25.764 35.2258 25.6178 35.2115 25.4707C35.1972 25.3235 35.1188 25.1875 34.9935 25.0926C34.8683 24.9977 34.7064 24.9516 34.5436 24.9645C34.3808 24.9774 34.2303 25.0483 34.1252 25.1614Z" fill="#737791"/>
</svg>
