<svg width="32" height="32" viewBox="0 0 32 32" fill="none" xmlns="http://www.w3.org/2000/svg">
<path fill-rule="evenodd" clip-rule="evenodd" d="M21.7746 22.2011L26.337 16.8777C26.5549 16.6292 26.6663 16.3154 26.6665 16C26.6666 15.7842 26.6146 15.5676 26.5089 15.3706C26.462 15.2828 26.4046 15.1994 26.337 15.1223L21.7746 9.79895C21.2954 9.23982 20.4537 9.17502 19.8946 9.65422C19.3354 10.1334 19.2706 10.9751 19.7498 11.5343L22.4344 14.6666L12.1082 14.6666C11.3718 14.6666 10.7749 15.2636 10.7749 15.9999C10.7749 16.7363 11.3718 17.3333 12.1082 17.3333L22.4345 17.3333L19.7498 20.4658C19.2706 21.0249 19.3354 21.8666 19.8946 22.3458C20.4537 22.825 21.2954 22.7602 21.7746 22.2011ZM13.3332 7.99992C14.0696 7.99992 14.6665 8.59687 14.6665 9.33325L14.6665 11.3333C14.6665 12.0696 15.2635 12.6666 15.9998 12.6666C16.7362 12.6666 17.3332 12.0696 17.3332 11.3333L17.3332 9.33325C17.3332 7.12411 15.5423 5.33325 13.3332 5.33325L9.33317 5.33325C7.12403 5.33325 5.33317 7.12411 5.33317 9.33325L5.33317 22.6666C5.33317 24.8757 7.12403 26.6666 9.33317 26.6666L13.3332 26.6666C15.5423 26.6666 17.3332 24.8757 17.3332 22.6666L17.3332 20.6666C17.3332 19.9302 16.7362 19.3333 15.9998 19.3333C15.2635 19.3333 14.6665 19.9302 14.6665 20.6666L14.6665 22.6666C14.6665 23.403 14.0696 23.9999 13.3332 23.9999L9.33317 23.9999C8.59679 23.9999 7.99984 23.403 7.99984 22.6666L7.99984 9.33325C7.99984 8.59687 8.59679 7.99992 9.33317 7.99992L13.3332 7.99992Z" fill="#737791"/>
</svg>
