<svg width="27" height="24" viewBox="0 0 27 24" fill="none" xmlns="http://www.w3.org/2000/svg">
<path d="M11.8125 18C14.0503 18 16.1964 17.2098 17.7787 15.8033C19.361 14.3968 20.25 12.4891 20.25 10.5C20.25 8.5109 19.361 6.60324 17.7787 5.19672C16.1964 3.7902 14.0503 3.00002 11.8125 3.00002C9.57473 3.00002 7.42862 3.7902 5.84628 5.19672C4.26394 6.60324 3.375 8.5109 3.375 10.5C3.375 12.4891 4.26394 14.3968 5.84628 15.8033C7.42862 17.2098 9.57473 18 11.8125 18ZM19.6526 16.1955L25.3108 21.225L23.8781 22.4985L18.2199 17.469C16.2087 18.9301 13.6426 19.6482 11.0524 19.4748C8.46221 19.3014 6.04607 18.2498 4.30366 16.5374C2.56124 14.8251 1.62585 12.5829 1.69093 10.2748C1.756 7.96659 2.81657 5.76893 4.65329 4.13629C6.49001 2.50364 8.96238 1.56092 11.5591 1.50307C14.1558 1.44523 16.6782 2.27669 18.6046 3.8255C20.531 5.37431 21.7141 7.52199 21.9092 9.82438C22.1042 12.1268 21.2964 14.4077 19.6526 16.1955Z" fill="#737791"/>
</svg>
