<svg width="24" height="19" viewBox="0 0 24 19" fill="none" xmlns="http://www.w3.org/2000/svg">
<path d="M23.0373 16.1392C23.0829 17.2375 22.3119 18.1969 21.278 18.1969C21.0099 18.1969 20.7248 18.1326 20.4313 17.9895C19.6395 17.604 18.8577 17.1926 18.0709 16.7935C18.0114 16.7631 17.95 16.7363 17.9285 16.7262C17.7601 16.9939 17.6204 17.2577 17.4439 17.487C17.1637 17.8513 16.7844 17.994 16.3565 17.9933C13.7245 17.9933 11.0925 17.9941 8.46044 17.9941C6.15734 17.9941 3.85439 17.9935 1.55129 17.9917C0.651562 17.9911 0.0102699 17.2622 0.0102699 16.2615C0.00921035 12.5782 0.0224296 8.89489 2.7264e-05 5.21208C-0.00506877 4.32886 0.704894 3.47393 1.56789 3.47393C3.38556 3.48293 5.19702 3.48544 7.00777 3.48544C9.03206 3.48544 11.0557 3.48248 13.08 3.48248H13.4108V3.10638C13.4101 2.67429 13.4072 2.24148 13.4108 1.80939C13.4121 1.5881 13.3254 1.47534 13.1282 1.47534C13.0907 1.47611 13.0691 1.47636 13.0475 1.47636C12.9937 1.47636 12.9401 1.47495 12.8863 1.47495C8.83987 1.47495 4.79398 1.47553 0.748185 1.47553C0.227835 1.47553 -0.00305081 1.21901 0.0117327 0.657819C0.0203607 0.333409 0.245796 0.0527815 0.536018 0.00957842C0.578905 0.00308509 0.6226 0.00192863 0.666345 0.00192863C0.690615 0.00192863 0.714884 0.0022504 0.739053 0.0022504C2.66187 0.0022504 4.58524 0.00250742 6.50811 0.00250742C8.75203 0.00250742 10.9952 0.00205729 13.2387 0C13.6665 0 14.0337 0.124016 14.3393 0.470798C14.6064 0.773799 14.7477 1.12077 14.7447 1.54336C14.7416 2.09162 14.7441 2.64053 14.7441 3.18938V3.48235C15.0483 3.48235 15.3437 3.49322 15.6348 3.49322C15.8125 3.49322 15.9885 3.48917 16.164 3.47618C16.2096 3.47284 16.2548 3.47104 16.2993 3.47104C17.049 3.47104 17.6228 3.94505 17.88 4.7708C17.9527 4.73717 18.026 4.70573 18.0976 4.66922C18.8843 4.27047 19.6708 3.8709 20.457 3.47052C20.6846 3.35441 20.9701 3.28112 21.2695 3.28112C21.7382 3.28112 22.2404 3.46075 22.6058 3.93695C22.8825 4.29788 23.0238 4.69513 23.0233 5.1649C23.0208 7.25999 23.0223 9.35566 23.0223 11.4506C23.0225 13.0138 22.9727 14.5791 23.0373 16.1392ZM16.5629 5.60284C16.5629 5.56992 16.5632 5.5372 16.5632 5.50441C16.5632 5.4623 16.5625 5.42026 16.5603 5.3784C16.5441 5.0882 16.4698 4.99787 16.2088 4.95807C16.1847 4.95446 16.1606 4.95191 16.1364 4.95042C16.1019 4.94836 16.0673 4.94733 16.0327 4.94734H15.961C11.2908 4.94682 6.62058 4.94682 1.95034 4.94734C1.86739 4.94734 1.78505 4.95241 1.70215 4.95634C1.46208 4.9681 1.35275 5.11906 1.34301 5.37275C1.34015 5.45576 1.3388 5.53884 1.33897 5.62193V11.108C1.33897 12.1158 1.33857 13.1235 1.33857 14.1313C1.33857 14.7361 1.33877 15.3408 1.33948 15.9456C1.33993 16.4187 1.43055 16.5166 1.85468 16.5227C1.87476 16.5229 1.89494 16.5229 1.91497 16.5229C1.95529 16.5229 1.9953 16.5227 2.03566 16.5227H8.95052C11.2861 16.5227 13.621 16.5227 15.9558 16.522C16.0464 16.522 16.1364 16.5158 16.2264 16.5115C16.4492 16.5002 16.5484 16.3588 16.5579 16.1259C16.5615 16.0428 16.562 15.9597 16.562 15.8766C16.5629 12.452 16.5629 9.0274 16.5629 5.60284ZM21.6921 15.8681C21.6931 14.1643 21.6931 12.461 21.6931 10.7571C21.6931 9.04533 21.6931 7.33354 21.6926 5.62187C21.6926 5.51361 21.6885 5.40579 21.6819 5.29804C21.6658 5.02153 21.51 4.81612 21.2838 4.80358C21.2306 4.80352 21.2061 4.8059 21.1808 4.81072C21.1409 4.81972 21.1253 4.82435 21.1096 4.82968C21.0956 4.83451 21.0812 4.84004 21.0669 4.84608C21.0495 4.85354 21.0319 4.86209 21.0141 4.87154C20.0385 5.39184 19.0497 5.88122 18.0642 6.37677C17.9472 6.43572 17.8933 6.50149 17.8938 6.65238C17.8958 8.01534 17.8967 9.37823 17.8967 10.7411C17.8967 12.1039 17.8958 13.4667 17.8944 14.8295C17.8938 14.9687 17.9407 15.0348 18.051 15.0905C19.0503 15.5934 20.0517 16.0917 21.0426 16.6148C21.1131 16.6522 21.1819 16.6702 21.2465 16.6724C21.483 16.6669 21.6468 16.4842 21.6726 16.241C21.6859 16.1173 21.6921 15.9922 21.6921 15.8681Z" fill="#737791"/>
</svg>
